<?xml version="1.0" encoding="utf-8"?>
<!-- Generator: Adobe Illustrator 27.0.1, SVG Export Plug-In . SVG Version: 6.00 Build 0)  -->
<svg version="1.1" xmlns="http://www.w3.org/2000/svg" xmlns:xlink="http://www.w3.org/1999/xlink" x="0px" y="0px"
	 viewBox="0 0 841.9 595.3" style="enable-background:new 0 0 841.9 595.3;" xml:space="preserve">
<style type="text/css">
	.st0{fill:#FFFFFF;}
	.st1{fill:#F39208;}
	.st2{fill:#F39200;}
</style>
<g id="Layer_1">
	<g id="Layer_4_00000079472098560178722210000015427487610098850953_">
	</g>
	<g>
		<path class="st0" d="M259.2,261.4c0,8.9-1.3,17.2-3.9,25s-6.4,14.6-11.3,20.3c-4.9,5.7-11,10.3-18.2,13.6
			c-7.2,3.3-15.3,4.9-24.4,4.9c-9.1,0-17.2-1.6-24.5-4.9c-7.2-3.3-13.3-7.8-18.2-13.6c-4.9-5.7-8.7-12.5-11.3-20.3s-3.9-16.1-3.9-25
			c0-8.9,1.3-17.2,3.9-25c2.6-7.8,6.4-14.5,11.3-20.3c4.9-5.7,11-10.3,18.2-13.6s15.4-4.9,24.5-4.9s17.2,1.6,24.4,4.9
			c7.2,3.3,13.2,7.8,18.2,13.6c4.9,5.7,8.7,12.5,11.3,20.3C257.9,244.2,259.2,252.5,259.2,261.4z M150.9,261.4
			c0,7.8,1.1,15.2,3.4,22.2c2.3,6.9,5.6,13,9.9,18.2c4.3,5.2,9.6,9.3,15.9,12.4c6.2,3.1,13.4,4.6,21.3,4.6c8,0,15-1.5,21.2-4.6
			s11.4-7.2,15.8-12.4c4.3-5.2,7.6-11.2,9.9-18.2c2.3-6.9,3.4-14.3,3.4-22.2c0-7.9-1.1-15.2-3.4-22.2c-2.3-6.9-5.6-13-9.9-18.2
			c-4.3-5.2-9.6-9.3-15.8-12.4c-6.2-3.1-13.3-4.6-21.2-4.6c-8,0-15.1,1.5-21.3,4.6c-6.3,3.1-11.5,7.2-15.9,12.4
			c-4.3,5.2-7.6,11.2-9.9,18.2C152.1,246.2,150.9,253.6,150.9,261.4z"/>
		<path class="st0" d="M348.4,322.3h-6.5v-18.8h-0.3c-1.1,3.3-2.8,6.2-4.9,8.8c-2.1,2.6-4.5,4.7-7.3,6.6c-2.8,1.8-5.8,3.2-9.1,4.1
			c-3.3,0.9-6.6,1.4-10.1,1.4c-5.1,0-9.5-0.6-13-1.9c-3.6-1.2-6.5-2.9-8.8-4.9s-4.1-4.3-5.4-6.9s-2.2-5.1-2.8-7.8
			c-0.6-2.6-0.9-5.1-1-7.6c-0.1-2.4-0.2-4.6-0.2-6.4v-54.2h6.5v55.4c0,2.3,0.2,5,0.5,8.3s1.3,6.4,3,9.4c1.6,3,4.1,5.6,7.4,7.8
			c3.3,2.2,8,3.2,14,3.2c4.9,0,9.3-0.9,13.2-2.7c3.9-1.8,7.2-4.3,10-7.6c2.7-3.2,4.8-7.1,6.2-11.6c1.4-4.5,2.1-9.4,2.1-14.7v-47.4
			h6.5L348.4,322.3L348.4,322.3z"/>
		<path class="st0" d="M379.2,254.1h0.5c0.8-2.8,2.2-5.5,4.3-8c2.1-2.5,4.7-4.7,7.7-6.5s6.4-3.2,10.1-4.2s7.5-1.4,11.5-1.3v6.5
			c-3.4-0.5-7.3-0.1-11.7,1c-4.4,1.1-8.6,3.6-12.5,7.5c-1.6,1.7-3,3.4-4.2,4.9c-1.2,1.6-2.2,3.4-3,5.3s-1.4,4.1-1.9,6.5
			s-0.7,5.2-0.9,8.5v47.9h-6.4v-87.6h6.5V254.1z"/>
		<path class="st0" d="M512.9,235.3c-0.2-5.2-1.3-9.8-3.3-13.6c-2-3.9-4.7-7.1-8.1-9.7c-3.4-2.6-7.5-4.6-12.2-5.9
			c-4.7-1.3-9.9-2-15.4-2c-3.4,0-7.1,0.4-11,1.2s-7.6,2.2-10.9,4.2c-3.4,2-6.1,4.7-8.3,8c-2.2,3.4-3.2,7.5-3.2,12.5
			c0,4.9,1.2,8.9,3.6,11.9c2.4,3.1,5.5,5.5,9.4,7.4s8.3,3.4,13.3,4.5s10.1,2.2,15.2,3.2c5.2,1,10.3,2.2,15.3,3.7
			c4.9,1.4,9.4,3.4,13.3,5.8s7.1,5.6,9.5,9.5s3.6,8.8,3.6,14.7c0,6.4-1.4,11.7-4.1,16c-2.7,4.3-6.2,7.8-10.3,10.6
			c-4.2,2.7-8.8,4.7-13.8,5.9c-5.1,1.2-9.9,1.8-14.6,1.8c-7.2,0-13.9-0.8-20.1-2.3c-6.3-1.5-11.7-4-16.4-7.5
			c-4.7-3.5-8.3-7.9-11-13.4s-3-12.1-2.8-19.9h6.5c-0.3,6.7,0.6,12.4,2.9,17s5.4,8.4,9.5,11.3c4,3,8.8,5.1,14.2,6.4
			c5.5,1.3,11.2,2,17.2,2c3.6,0,7.5-0.5,11.7-1.4c4.1-0.9,8-2.4,11.4-4.6c3.5-2.2,6.4-5,8.7-8.5c2.3-3.5,3.5-8,3.5-13.3
			c0-5.1-1.2-9.3-3.6-12.5c-2.4-3.2-5.5-5.9-9.5-7.8c-3.9-2-8.4-3.6-13.3-4.8s-10-2.3-15.3-3.3c-5.1-1-10.2-2.2-15.2-3.6
			s-9.4-3.2-13.3-5.5s-7-5.3-9.4-9s-3.6-8.4-3.6-14.2s1.2-10.8,3.7-14.9c2.4-4.1,5.6-7.5,9.5-10.1s8.3-4.4,13.2-5.6
			c4.9-1.2,9.7-1.8,14.5-1.8c6.4,0,12.3,0.7,17.8,2.1c5.5,1.4,10.3,3.6,14.5,6.6c4.1,3,7.5,6.9,10,11.7s3.9,10.5,4.3,17.2
			L512.9,235.3L512.9,235.3z"/>
		<path class="st0" d="M535.5,234.6h7.7l32.6,80l30-80h7.3l-37.5,97c-1.8,4.3-3.5,8-5,11.2c-1.5,3.1-3.3,5.4-5.2,6.9
			c-2.3,1.8-5,2.9-8.1,3.3s-7.2,0.6-12.4,0.6V348c4.7,0,8.3-0.4,10.9-1.1c2.6-0.7,5.1-2.2,7.3-4.5c1.2-1.3,2.6-3.6,3.9-6.9
			c1.4-3.4,3.1-7.9,5.1-13.7L535.5,234.6z"/>
		<path class="st0" d="M630,293.1c0.2,4.1,1.1,7.7,2.7,10.8c1.6,3.1,3.7,5.8,6.2,8s5.5,3.9,9,5c3.4,1.1,7.1,1.7,11.1,1.7
			c2.8,0,5.9-0.3,9.1-0.8c3.2-0.5,6.2-1.4,9-2.8s5.1-3.3,6.9-5.7c1.8-2.4,2.7-5.5,2.7-9.3c0-4.9-1.5-8.6-4.4-11.1
			c-3-2.5-6.7-4.4-11.2-5.8s-9.3-2.5-14.5-3.3c-5.2-0.9-10-2.1-14.5-3.8c-4.5-1.7-8.2-4.1-11.2-7.2s-4.4-7.7-4.4-13.7
			c0-4.3,1-7.9,2.9-10.8s4.4-5.2,7.4-6.9c3-1.7,6.4-2.9,10.1-3.7c3.8-0.7,7.5-1.1,11.3-1.1c4.5,0,8.8,0.5,12.8,1.5s7.4,2.7,10.3,4.9
			c2.9,2.3,5.2,5.2,6.8,8.7s2.5,7.8,2.5,12.8h-6.5c0-4-0.7-7.4-2-10.2c-1.3-2.8-3.1-5.1-5.5-6.9c-2.3-1.8-5.1-3.1-8.3-3.9
			c-3.2-0.9-6.6-1.3-10.2-1.3c-3,0-5.9,0.3-9,0.9c-3,0.6-5.7,1.5-8.1,2.9c-2.4,1.4-4.3,3.1-5.9,5.3c-1.5,2.2-2.3,4.8-2.3,7.8
			c0,3.5,0.9,6.4,2.6,8.5c1.7,2.2,3.9,3.9,6.7,5.2c2.8,1.3,5.9,2.4,9.4,3.2c3.5,0.8,7,1.6,10.5,2.4c4.3,0.8,8.4,1.7,12.2,2.8
			c3.8,1.1,7.1,2.6,9.9,4.4c2.8,1.9,5,4.3,6.6,7.2c1.6,3,2.4,6.7,2.4,11.3c0,4.8-1.1,8.7-3.2,11.8c-2.2,3.1-4.9,5.5-8.2,7.4
			s-7,3.2-11,3.9c-4,0.7-8,1.1-11.8,1.1c-5,0-9.6-0.7-13.9-2c-4.3-1.3-8-3.3-11.2-6s-5.7-5.9-7.5-9.8s-2.8-8.4-2.9-13.5h6.6V293.1z"
			/>
	</g>
	<polygon class="st1" points="126.2,284 186.6,258.8 126.2,235.8 	"/>
	<g>
		<path class="st2" d="M709.7,369.1l0.4-1.7h4.5l1-4.5h1.8l-1,4.5h4.5l-0.4,1.7H716l-1,4.5h-1.8l1-4.5H709.7z"/>
		<path class="st2" d="M729.9,358.5h2.3l2.3,15.1h-2.2l-0.6-4.5h-6l-2.6,4.5H721L729.9,358.5z M731.4,367.4l-0.9-6.7l-3.8,6.7H731.4
			z"/>
		<path class="st2" d="M740.6,358.5h2.1l-3.2,15.1h-2.1L740.6,358.5z"/>
	</g>
	<g>
		<path class="st0" d="M436.2,392.8v-21.6h3.1l7.1,19.1h0.1l7-19.1h3.1v21.6h-2v-19.3h-0.1l-7.1,19.3h-1.9l-7.1-19.3h-0.1v19.3
			H436.2z"/>
		<path class="st0" d="M469,383.7c0.3,0,0.7-0.1,1.2-0.2c0.5-0.1,0.9-0.2,1.2-0.3c0.3-0.1,0.5-0.4,0.6-0.7s0.1-0.6,0.1-0.9
			c0-0.9-0.3-1.7-0.9-2.3c-0.6-0.6-1.6-0.9-3-0.9c-0.6,0-1.2,0.1-1.7,0.2c-0.5,0.1-1,0.3-1.4,0.6c-0.4,0.3-0.7,0.6-1,1.1
			c-0.2,0.4-0.4,1-0.5,1.7h-1.8c0.1-0.9,0.3-1.7,0.6-2.4c0.4-0.6,0.8-1.2,1.4-1.6c0.6-0.4,1.2-0.7,2-0.9s1.5-0.3,2.4-0.3
			c0.8,0,1.5,0.1,2.2,0.3c0.7,0.2,1.3,0.4,1.8,0.8c0.5,0.4,0.9,0.9,1.2,1.5c0.3,0.6,0.4,1.4,0.4,2.3v8.5c0,0.7,0.1,1.1,0.4,1.3
			c0.2,0.2,0.8,0.1,1.5-0.1v1.4c-0.1,0-0.3,0.1-0.6,0.2c-0.3,0.1-0.5,0.1-0.8,0.1c-0.3,0-0.6,0-0.8-0.1c-0.3,0-0.5-0.1-0.7-0.3
			c-0.2-0.2-0.3-0.3-0.4-0.5c-0.1-0.2-0.2-0.4-0.2-0.7c0-0.2-0.1-0.5-0.1-0.8c-0.8,0.8-1.6,1.5-2.6,1.9c-1,0.4-2,0.7-3.2,0.7
			c-0.7,0-1.3-0.1-2-0.3c-0.6-0.2-1.2-0.5-1.7-0.8c-0.5-0.4-0.9-0.8-1.1-1.4c-0.3-0.5-0.4-1.2-0.4-2c0-2.6,1.8-4.2,5.4-4.7
			L469,383.7z M472.1,384.6c-0.8,0.3-1.5,0.5-2.3,0.6c-0.8,0.1-1.6,0.2-2.3,0.2c-1.4,0.1-2.5,0.4-3.2,0.9c-0.8,0.5-1.2,1.3-1.2,2.4
			c0,0.5,0.1,0.9,0.3,1.2c0.2,0.4,0.4,0.6,0.8,0.9c0.3,0.2,0.7,0.4,1.1,0.5c0.4,0.1,0.8,0.2,1.2,0.2c0.7,0,1.4-0.1,2.1-0.3
			c0.7-0.2,1.3-0.5,1.8-0.8c0.5-0.4,1-0.8,1.3-1.4c0.3-0.6,0.5-1.2,0.5-2V384.6z"/>
		<path class="st0" d="M481.3,392.8h-1.8v-15.5h1.8v2.2c0.7-0.8,1.5-1.4,2.2-1.9c0.8-0.5,1.7-0.7,2.8-0.7c1,0,1.8,0.2,2.7,0.5
			s1.5,0.9,2.1,1.7c0.4,0.6,0.6,1.1,0.7,1.7c0.1,0.6,0.1,1.2,0.1,1.8v10.2H490v-10.1c0-1.4-0.3-2.4-0.9-3.1c-0.6-0.7-1.6-1-3.1-1
			c-0.6,0-1.1,0.1-1.5,0.3s-0.9,0.4-1.2,0.7c-0.4,0.3-0.7,0.6-0.9,1c-0.3,0.4-0.5,0.7-0.6,1.1c-0.2,0.5-0.3,1-0.3,1.4
			c0,0.5-0.1,1-0.1,1.5V392.8z"/>
		<path class="st0" d="M507.6,377.2h1.8v15.5h-1.8v-2.2c-0.2,0.3-0.5,0.6-0.8,0.9s-0.6,0.6-1,0.8c-0.4,0.2-0.8,0.5-1.4,0.6
			c-0.5,0.2-1.1,0.3-1.8,0.3c-1,0-1.9-0.1-2.6-0.4c-0.7-0.3-1.3-0.7-1.7-1.2c-0.4-0.5-0.7-1.1-0.9-1.8c-0.2-0.7-0.3-1.4-0.3-2.3
			v-10.2h1.8v10.2c0,1.3,0.3,2.4,0.9,3.1c0.6,0.7,1.6,1.1,3.1,1.1c0.7,0,1.4-0.1,2-0.4c0.6-0.3,1.1-0.7,1.5-1.2
			c0.4-0.5,0.7-1.1,0.9-1.9c0.2-0.7,0.3-1.5,0.3-2.4V377.2z"/>
		<path class="st0" d="M513.1,378.7v-1.5h2.3v-2.5c0-1.2,0.2-2.2,0.8-2.9c0.5-0.7,1.3-1.1,2.5-1.1c0.3,0,0.5,0,0.8,0
			c0.2,0,0.5,0.1,0.7,0.1v1.6c-0.4-0.1-0.8-0.1-1.1-0.1c-0.5,0-0.8,0.1-1.1,0.3c-0.3,0.2-0.5,0.4-0.6,0.7c-0.1,0.3-0.2,0.6-0.2,0.9
			c0,0.4,0,0.7,0,1.1v1.9h3v1.5h-3v14h-1.8v-14H513.1z"/>
		<path class="st0" d="M531,383.7c0.3,0,0.7-0.1,1.2-0.2c0.5-0.1,0.9-0.2,1.2-0.3c0.3-0.1,0.5-0.4,0.6-0.7s0.1-0.6,0.1-0.9
			c0-0.9-0.3-1.7-0.9-2.3c-0.6-0.6-1.6-0.9-3-0.9c-0.6,0-1.2,0.1-1.7,0.2c-0.5,0.1-1,0.3-1.4,0.6c-0.4,0.3-0.7,0.6-1,1.1
			c-0.2,0.4-0.4,1-0.5,1.7h-1.8c0.1-0.9,0.3-1.7,0.6-2.4c0.4-0.6,0.8-1.2,1.4-1.6c0.6-0.4,1.2-0.7,2-0.9s1.5-0.3,2.4-0.3
			c0.8,0,1.5,0.1,2.2,0.3c0.7,0.2,1.3,0.4,1.8,0.8c0.5,0.4,0.9,0.9,1.2,1.5c0.3,0.6,0.4,1.4,0.4,2.3v8.5c0,0.7,0.1,1.1,0.4,1.3
			c0.2,0.2,0.8,0.1,1.5-0.1v1.4c-0.1,0-0.3,0.1-0.6,0.2c-0.3,0.1-0.5,0.1-0.8,0.1c-0.3,0-0.6,0-0.8-0.1c-0.3,0-0.5-0.1-0.7-0.3
			c-0.2-0.2-0.3-0.3-0.4-0.5c-0.1-0.2-0.2-0.4-0.2-0.7c0-0.2-0.1-0.5-0.1-0.8c-0.8,0.8-1.6,1.5-2.6,1.9c-1,0.4-2,0.7-3.2,0.7
			c-0.7,0-1.3-0.1-2-0.3c-0.6-0.2-1.2-0.5-1.7-0.8c-0.5-0.4-0.9-0.8-1.1-1.4c-0.3-0.5-0.4-1.2-0.4-2c0-2.6,1.8-4.2,5.4-4.7
			L531,383.7z M534.1,384.6c-0.8,0.3-1.5,0.5-2.3,0.6c-0.8,0.1-1.6,0.2-2.3,0.2c-1.4,0.1-2.5,0.4-3.2,0.9c-0.8,0.5-1.2,1.3-1.2,2.4
			c0,0.5,0.1,0.9,0.3,1.2c0.2,0.4,0.4,0.6,0.8,0.9c0.3,0.2,0.7,0.4,1.1,0.5c0.4,0.1,0.8,0.2,1.2,0.2c0.7,0,1.4-0.1,2.1-0.3
			c0.7-0.2,1.3-0.5,1.8-0.8c0.5-0.4,1-0.8,1.3-1.4c0.3-0.6,0.5-1.2,0.5-2V384.6z"/>
		<path class="st0" d="M552.5,382.1c-0.3-1.2-0.9-2.1-1.7-2.7c-0.8-0.6-1.8-1-3-1c-0.9,0-1.7,0.2-2.4,0.6c-0.7,0.4-1.2,0.9-1.6,1.5
			c-0.4,0.6-0.7,1.3-0.9,2.1c-0.2,0.8-0.3,1.6-0.3,2.4c0,0.8,0.1,1.6,0.3,2.4c0.2,0.8,0.5,1.5,0.9,2.1c0.4,0.6,1,1.1,1.6,1.5
			c0.7,0.4,1.5,0.6,2.4,0.6c1.3,0,2.4-0.4,3.2-1.1c0.8-0.7,1.3-1.8,1.5-3.1h1.9c-0.2,0.9-0.4,1.6-0.8,2.4c-0.3,0.7-0.8,1.3-1.3,1.8
			c-0.6,0.5-1.2,0.9-2,1.2c-0.8,0.3-1.6,0.4-2.6,0.4c-1.2,0-2.3-0.2-3.2-0.6c-0.9-0.4-1.6-1-2.2-1.7c-0.6-0.7-1-1.6-1.3-2.6
			c-0.3-1-0.4-2.1-0.4-3.2c0-1.1,0.2-2.1,0.5-3.1c0.3-1,0.8-1.9,1.4-2.6c0.6-0.8,1.3-1.4,2.2-1.8c0.9-0.4,1.9-0.7,3.1-0.7
			c1.8,0,3.3,0.4,4.4,1.3s1.8,2.2,2.1,4H552.5z"/>
		<path class="st0" d="M564.5,392.8c-0.2,0-0.5,0.1-0.9,0.2c-0.4,0.1-0.8,0.1-1.2,0.1c-0.9,0-1.6-0.2-2.1-0.7
			c-0.5-0.5-0.7-1.3-0.7-2.4v-11.4h-2.2v-1.5h2.2v-4.3h1.8v4.3h2.9v1.5h-2.9v10.6c0,0.4,0,0.7,0,1c0,0.3,0.1,0.5,0.2,0.7
			c0.1,0.2,0.3,0.3,0.5,0.4s0.5,0.1,0.9,0.1c0.2,0,0.5,0,0.7-0.1s0.5-0.1,0.7-0.2V392.8z"/>
		<path class="st0" d="M578.8,377.2h1.8v15.5h-1.8v-2.2c-0.2,0.3-0.5,0.6-0.8,0.9s-0.6,0.6-1,0.8c-0.4,0.2-0.8,0.5-1.4,0.6
			c-0.5,0.2-1.1,0.3-1.8,0.3c-1,0-1.9-0.1-2.6-0.4c-0.7-0.3-1.3-0.7-1.7-1.2c-0.4-0.5-0.7-1.1-0.9-1.8c-0.2-0.7-0.3-1.4-0.3-2.3
			v-10.2h1.8v10.2c0,1.3,0.3,2.4,0.9,3.1c0.6,0.7,1.6,1.1,3.1,1.1c0.7,0,1.4-0.1,2-0.4c0.6-0.3,1.1-0.7,1.5-1.2
			c0.4-0.5,0.7-1.1,0.9-1.9c0.2-0.7,0.3-1.5,0.3-2.4V377.2z"/>
		<path class="st0" d="M587.8,392.8H586v-15.5h1.8v2.9h0.1c0.5-1.2,1.1-2.1,1.9-2.6c0.8-0.5,1.8-0.7,3.1-0.7v2c-1,0-1.9,0.1-2.5,0.5
			c-0.7,0.3-1.2,0.8-1.6,1.4s-0.7,1.3-0.8,2.1c-0.2,0.8-0.2,1.6-0.2,2.5V392.8z"/>
		<path class="st0" d="M596.9,373.8v-2.7h2v2.7H596.9z M597,392.8v-15.5h1.8v15.5H597z"/>
		<path class="st0" d="M606.1,392.8h-1.8v-15.5h1.8v2.2c0.7-0.8,1.5-1.4,2.2-1.9c0.8-0.5,1.7-0.7,2.8-0.7c1,0,1.8,0.2,2.7,0.5
			s1.5,0.9,2.1,1.7c0.4,0.6,0.6,1.1,0.7,1.7c0.1,0.6,0.1,1.2,0.1,1.8v10.2h-1.8v-10.1c0-1.4-0.3-2.4-0.9-3.1c-0.6-0.7-1.6-1-3.1-1
			c-0.6,0-1.1,0.1-1.5,0.3s-0.9,0.4-1.2,0.7c-0.4,0.3-0.7,0.6-0.9,1c-0.3,0.4-0.5,0.7-0.6,1.1c-0.2,0.5-0.3,1-0.3,1.4
			c0,0.5-0.1,1-0.1,1.5V392.8z"/>
		<path class="st0" d="M633.9,377.2h1.8v14c0,1-0.1,2-0.3,3c-0.2,0.9-0.6,1.8-1.1,2.5c-0.5,0.7-1.3,1.3-2.2,1.7s-2.2,0.6-3.6,0.6
			c-1.1,0-2.1-0.1-2.9-0.4c-0.8-0.3-1.5-0.7-2-1.1c-0.5-0.4-0.9-0.9-1.2-1.5c-0.3-0.5-0.4-1-0.4-1.5h1.9c0.1,0.6,0.4,1.1,0.7,1.4
			c0.3,0.4,0.7,0.7,1.1,0.9c0.4,0.2,0.9,0.4,1.4,0.4c0.5,0.1,1,0.1,1.6,0.1c1.2,0,2.2-0.2,2.9-0.6c0.7-0.4,1.3-1,1.7-1.6
			c0.4-0.7,0.6-1.5,0.7-2.3c0.1-0.9,0.2-1.7,0.1-2.6c-0.6,1-1.4,1.7-2.4,2.2c-1,0.5-2.1,0.7-3.2,0.7c-1.2,0-2.2-0.2-3.1-0.7
			c-0.9-0.5-1.6-1.1-2.2-1.8s-1-1.6-1.3-2.6c-0.3-1-0.4-2-0.4-3.1c0-1.1,0.1-2.2,0.4-3.2c0.3-1,0.7-1.9,1.2-2.6
			c0.6-0.7,1.3-1.3,2.2-1.7c0.9-0.4,2-0.6,3.2-0.6c0.5,0,1,0.1,1.5,0.2c0.5,0.1,1,0.3,1.5,0.6c0.5,0.3,0.9,0.6,1.3,1
			c0.4,0.4,0.7,0.9,1,1.4h0.1V377.2z M633.9,385c0-0.9-0.1-1.8-0.3-2.6c-0.2-0.8-0.6-1.5-1-2.1c-0.4-0.6-1-1.1-1.6-1.4
			c-0.7-0.3-1.4-0.5-2.2-0.5c-0.8,0-1.5,0.1-2.1,0.4c-0.6,0.3-1.2,0.7-1.7,1.2c-0.5,0.5-0.9,1.2-1.1,1.9c-0.3,0.8-0.4,1.6-0.4,2.6
			c0,1,0,1.9,0.2,2.7s0.5,1.6,1,2.2c0.4,0.6,1,1.1,1.7,1.5c0.7,0.4,1.5,0.6,2.4,0.6c0.8,0,1.6-0.2,2.2-0.5c0.6-0.3,1.2-0.8,1.6-1.4
			c0.5-0.6,0.8-1.3,1-2.1C633.8,386.8,633.9,385.9,633.9,385z"/>
		<path class="st0" d="M650.6,392.8v-21.6H665v1.7h-12.3v7.8h11.1v1.7h-11.1v8.6h12.6v1.7H650.6z"/>
		<path class="st0" d="M671.9,382.9v9.8l-2,0v-21.6h8.5c2.4,0,4.2,0.4,5.5,1.3c1.3,0.9,1.9,2.3,1.9,4.3c0,1.4-0.3,2.4-0.8,3.2
			c-0.5,0.8-1.4,1.5-2.7,2c0.6,0.2,1.1,0.5,1.5,1c0.4,0.4,0.6,0.9,0.8,1.4c0.2,0.5,0.3,1.1,0.3,1.7c0,0.6,0.1,1.2,0.1,1.7
			c0,0.8,0.1,1.5,0.1,2c0,0.5,0.1,1,0.2,1.3c0.1,0.3,0.2,0.6,0.3,0.8c0.1,0.2,0.2,0.3,0.4,0.4v0.2l-2.2,0c-0.2-0.4-0.4-0.9-0.5-1.5
			c-0.1-0.6-0.2-1.3-0.2-2s-0.1-1.4-0.1-2c0-0.7-0.1-1.2-0.2-1.6c-0.1-0.6-0.3-1-0.6-1.4c-0.3-0.3-0.6-0.6-1-0.8
			c-0.4-0.2-0.8-0.3-1.3-0.4c-0.5-0.1-1-0.1-1.5-0.1H671.9z M678.2,381.2c0.8,0,1.5-0.1,2.1-0.2c0.6-0.2,1.2-0.4,1.7-0.8
			c0.5-0.3,0.9-0.8,1.1-1.3s0.4-1.2,0.4-1.9c0-0.8-0.1-1.5-0.4-2c-0.3-0.5-0.7-0.9-1.2-1.2c-0.5-0.3-1.1-0.5-1.7-0.6
			c-0.6-0.1-1.3-0.2-2-0.2h-6.5v8.3H678.2z"/>
		<path class="st0" d="M690.7,392.8v-21.6h7.9c1.4,0,2.6,0.2,3.5,0.5c0.9,0.3,1.6,0.8,2.2,1.3c0.5,0.6,0.9,1.2,1.1,1.9
			c0.2,0.7,0.3,1.5,0.3,2.3c0,1.2-0.2,2.2-0.7,3c-0.5,0.8-1.1,1.4-1.9,1.8c-0.8,0.4-1.7,0.8-2.7,0.9c-1,0.2-2,0.3-3,0.3h-4.6v9.5
			H690.7z M697.4,381.5c1,0,1.8-0.1,2.6-0.2s1.4-0.3,1.9-0.7c0.5-0.3,0.9-0.8,1.2-1.4c0.3-0.6,0.4-1.3,0.4-2.2
			c0-1.4-0.4-2.4-1.3-3.1c-0.9-0.7-2.3-1-4.2-1h-5.3v8.6H697.4z"/>
	</g>
</g>
<g id="Layer_2">
</g>
<g id="Layer_3">
</g>
<g id="Layer_4">
</g>
</svg>
